<svg xmlns="http://www.w3.org/2000/svg" viewBox="0 0 800 800">
  <rect width="800" height="800" fill="#050607"/>
  <g stroke="#0d1410" stroke-width="1">
    <path d="M40 0v800"/>
    <path d="M120 0v800"/>
    <path d="M200 0v800"/>
    <path d="M280 0v800"/>
    <path d="M360 0v800"/>
    <path d="M440 0v800"/>
    <path d="M520 0v800"/>
    <path d="M600 0v800"/>
    <path d="M680 0v800"/>
    <path d="M760 0v800"/>
  </g>
  <g fill="#9c63ff" font-family="Menlo, monospace" font-size="20" opacity="0.45">
    <text x="30" y="60">7F3D1</text>
    <text x="110" y="140">C0D3</text>
    <text x="190" y="220">11B10</text>
    <text x="270" y="300">5ECA</text>
    <text x="350" y="380">A91F</text>
    <text x="430" y="460">0BADC</text>
    <text x="510" y="540">FEED</text>
    <text x="590" y="620">BEE5</text>
    <text x="670" y="700">C5E</text>
  </g>
  <g fill="#1f123c" font-family="Menlo, monospace" font-size="18" opacity="0.28">
    <text x="70" y="100">010101010</text>
    <text x="150" y="180">10111001</text>
    <text x="230" y="260">00110110</text>
    <text x="310" y="340">11001001</text>
    <text x="390" y="420">10101010</text>
    <text x="470" y="500">00110011</text>
    <text x="550" y="580">11100011</text>
    <text x="630" y="660">01010101</text>
  </g>
</svg>
